<mxfile host="app.diagrams.net" modified="2023-06-11T07:25:44.131Z" agent="Mozilla/5.0 (Windows NT 10.0; Win64; x64) AppleWebKit/537.36 (KHTML, like Gecko) Chrome/114.0.0.0 Safari/537.36 Edg/114.0.1823.41" etag="NKhgSSzxd0_rd15NX3NA" version="21.3.7" type="github">
  <diagram id="6a731a19-8d31-9384-78a2-239565b7b9f0" name="Page-1">
    <mxGraphModel dx="-122" dy="952" grid="1" gridSize="10" guides="1" tooltips="1" connect="1" arrows="1" fold="1" page="1" pageScale="1" pageWidth="827" pageHeight="1169" background="none" math="0" shadow="0">
      <root>
        <mxCell id="0" />
        <mxCell id="1" parent="0" />
        <mxCell id="aE1QB3RteZNUTEEl0exg-2267" value="" style="rounded=1;whiteSpace=wrap;html=1;strokeColor=none;fillColor=#BAC8D3;fontSize=24;fontColor=#23445D;align=center;opacity=60;" vertex="1" parent="1">
          <mxGeometry x="1690" y="100" width="510" height="670" as="geometry" />
        </mxCell>
        <mxCell id="aE1QB3RteZNUTEEl0exg-2265" style="edgeStyle=orthogonalEdgeStyle;rounded=0;orthogonalLoop=1;jettySize=auto;html=1;entryX=0.5;entryY=0;entryDx=0;entryDy=0;entryPerimeter=0;shape=flexArrow;" edge="1" parent="1" source="aE1QB3RteZNUTEEl0exg-2274" target="aE1QB3RteZNUTEEl0exg-2258">
          <mxGeometry relative="1" as="geometry" />
        </mxCell>
        <mxCell id="aE1QB3RteZNUTEEl0exg-2266" style="edgeStyle=orthogonalEdgeStyle;rounded=0;orthogonalLoop=1;jettySize=auto;html=1;shadow=0;strokeColor=#000000;shape=flexArrow;" edge="1" parent="1" source="aE1QB3RteZNUTEEl0exg-2272" target="aE1QB3RteZNUTEEl0exg-2264">
          <mxGeometry relative="1" as="geometry" />
        </mxCell>
        <mxCell id="aE1QB3RteZNUTEEl0exg-2281" style="edgeStyle=orthogonalEdgeStyle;rounded=0;orthogonalLoop=1;jettySize=auto;html=1;entryX=0;entryY=1;entryDx=0;entryDy=0;entryPerimeter=0;shape=flexArrow;exitX=0.5;exitY=0;exitDx=0;exitDy=0;exitPerimeter=0;" edge="1" parent="1" source="aE1QB3RteZNUTEEl0exg-2285" target="aE1QB3RteZNUTEEl0exg-2290">
          <mxGeometry relative="1" as="geometry">
            <mxPoint x="1910" y="572" as="targetPoint" />
            <Array as="points">
              <mxPoint x="1890" y="417" />
            </Array>
          </mxGeometry>
        </mxCell>
        <mxCell id="aE1QB3RteZNUTEEl0exg-2258" value="" style="shape=mxgraph.cisco.computers_and_peripherals.workstation;html=1;dashed=0;fillColor=#10739E;strokeColor=#ffffff;strokeWidth=2;verticalLabelPosition=bottom;verticalAlign=top;fontFamily=Helvetica;fontSize=36;fontColor=#FFB366" vertex="1" parent="1">
          <mxGeometry x="1751.5" y="657" width="83" height="62" as="geometry" />
        </mxCell>
        <mxCell id="aE1QB3RteZNUTEEl0exg-2282" style="edgeStyle=orthogonalEdgeStyle;rounded=0;orthogonalLoop=1;jettySize=auto;html=1;entryX=0.85;entryY=1;entryDx=0;entryDy=0;entryPerimeter=0;shape=flexArrow;" edge="1" parent="1" source="aE1QB3RteZNUTEEl0exg-2288" target="aE1QB3RteZNUTEEl0exg-2290">
          <mxGeometry relative="1" as="geometry">
            <mxPoint x="1951.4999999999998" y="572" as="targetPoint" />
          </mxGeometry>
        </mxCell>
        <mxCell id="aE1QB3RteZNUTEEl0exg-2264" value="" style="shape=mxgraph.cisco.computers_and_peripherals.workstation;html=1;dashed=0;fillColor=#10739E;strokeColor=#ffffff;strokeWidth=2;verticalLabelPosition=bottom;verticalAlign=top;fontFamily=Helvetica;fontSize=36;fontColor=#FFB366" vertex="1" parent="1">
          <mxGeometry x="2050" y="657" width="83" height="62" as="geometry" />
        </mxCell>
        <mxCell id="aE1QB3RteZNUTEEl0exg-2268" value="Enemy" style="swimlane;fontStyle=0;childLayout=stackLayout;horizontal=1;startSize=26;fillColor=none;horizontalStack=0;resizeParent=1;resizeParentMax=0;resizeLast=0;collapsible=1;marginBottom=0;html=1;" vertex="1" parent="1">
          <mxGeometry x="2260" y="473" width="140" height="194" as="geometry">
            <mxRectangle x="2290" y="150" width="110" height="30" as="alternateBounds" />
          </mxGeometry>
        </mxCell>
        <mxCell id="aE1QB3RteZNUTEEl0exg-2269" value="ID" style="text;strokeColor=none;fillColor=none;align=left;verticalAlign=top;spacingLeft=4;spacingRight=4;overflow=hidden;rotatable=0;points=[[0,0.5],[1,0.5]];portConstraint=eastwest;whiteSpace=wrap;html=1;" vertex="1" parent="aE1QB3RteZNUTEEl0exg-2268">
          <mxGeometry y="26" width="140" height="26" as="geometry" />
        </mxCell>
        <mxCell id="aE1QB3RteZNUTEEl0exg-2270" value="HP" style="text;strokeColor=none;fillColor=none;align=left;verticalAlign=top;spacingLeft=4;spacingRight=4;overflow=hidden;rotatable=0;points=[[0,0.5],[1,0.5]];portConstraint=eastwest;whiteSpace=wrap;html=1;" vertex="1" parent="aE1QB3RteZNUTEEl0exg-2268">
          <mxGeometry y="52" width="140" height="26" as="geometry" />
        </mxCell>
        <mxCell id="aE1QB3RteZNUTEEl0exg-2271" value="Position" style="text;strokeColor=none;fillColor=none;align=left;verticalAlign=top;spacingLeft=4;spacingRight=4;overflow=hidden;rotatable=0;points=[[0,0.5],[1,0.5]];portConstraint=eastwest;whiteSpace=wrap;html=1;" vertex="1" parent="aE1QB3RteZNUTEEl0exg-2268">
          <mxGeometry y="78" width="140" height="26" as="geometry" />
        </mxCell>
        <mxCell id="aE1QB3RteZNUTEEl0exg-2317" value="item: weapon" style="text;strokeColor=none;fillColor=none;align=left;verticalAlign=middle;spacingLeft=4;spacingRight=4;overflow=hidden;points=[[0,0.5],[1,0.5]];portConstraint=eastwest;rotatable=0;whiteSpace=wrap;html=1;" vertex="1" parent="aE1QB3RteZNUTEEl0exg-2268">
          <mxGeometry y="104" width="140" height="30" as="geometry" />
        </mxCell>
        <mxCell id="aE1QB3RteZNUTEEl0exg-2316" value="function: follow Player" style="text;strokeColor=none;fillColor=none;align=left;verticalAlign=middle;spacingLeft=4;spacingRight=4;overflow=hidden;points=[[0,0.5],[1,0.5]];portConstraint=eastwest;rotatable=0;whiteSpace=wrap;html=1;" vertex="1" parent="aE1QB3RteZNUTEEl0exg-2268">
          <mxGeometry y="134" width="140" height="30" as="geometry" />
        </mxCell>
        <mxCell id="aE1QB3RteZNUTEEl0exg-2300" value="function: Attack Player" style="text;strokeColor=none;fillColor=none;align=left;verticalAlign=middle;spacingLeft=4;spacingRight=4;overflow=hidden;points=[[0,0.5],[1,0.5]];portConstraint=eastwest;rotatable=0;whiteSpace=wrap;html=1;" vertex="1" parent="aE1QB3RteZNUTEEl0exg-2268">
          <mxGeometry y="164" width="140" height="30" as="geometry" />
        </mxCell>
        <mxCell id="aE1QB3RteZNUTEEl0exg-2273" value="" style="edgeStyle=orthogonalEdgeStyle;rounded=0;orthogonalLoop=1;jettySize=auto;html=1;shadow=0;strokeColor=#000000;exitX=1;exitY=0.5;exitDx=0;exitDy=0;shape=flexArrow;" edge="1" parent="1" source="aE1QB3RteZNUTEEl0exg-2277" target="aE1QB3RteZNUTEEl0exg-2272">
          <mxGeometry relative="1" as="geometry">
            <mxPoint x="1956.3139999999999" y="543.666" as="sourcePoint" />
            <mxPoint x="2102" y="750" as="targetPoint" />
          </mxGeometry>
        </mxCell>
        <mxCell id="aE1QB3RteZNUTEEl0exg-2283" style="edgeStyle=orthogonalEdgeStyle;rounded=0;orthogonalLoop=1;jettySize=auto;html=1;entryX=-0.008;entryY=0.159;entryDx=0;entryDy=0;entryPerimeter=0;" edge="1" parent="1" source="aE1QB3RteZNUTEEl0exg-2272" target="aE1QB3RteZNUTEEl0exg-2268">
          <mxGeometry relative="1" as="geometry" />
        </mxCell>
        <mxCell id="aE1QB3RteZNUTEEl0exg-2272" value="" style="sketch=0;aspect=fixed;pointerEvents=1;shadow=0;dashed=0;html=1;strokeColor=none;labelPosition=center;verticalLabelPosition=bottom;verticalAlign=top;align=center;fillColor=#194B8D;shape=mxgraph.mscae.enterprise.document" vertex="1" parent="1">
          <mxGeometry x="2071.5" y="497" width="40" height="50" as="geometry" />
        </mxCell>
        <mxCell id="aE1QB3RteZNUTEEl0exg-2275" value="" style="edgeStyle=orthogonalEdgeStyle;rounded=0;orthogonalLoop=1;jettySize=auto;html=1;entryX=0.5;entryY=0;entryDx=0;entryDy=0;entryPerimeter=0;shape=flexArrow;exitX=0;exitY=0.5;exitDx=0;exitDy=0;" edge="1" parent="1" source="aE1QB3RteZNUTEEl0exg-2277" target="aE1QB3RteZNUTEEl0exg-2274">
          <mxGeometry relative="1" as="geometry">
            <mxPoint x="1943" y="558" as="sourcePoint" />
            <mxPoint x="1800" y="769" as="targetPoint" />
          </mxGeometry>
        </mxCell>
        <mxCell id="aE1QB3RteZNUTEEl0exg-2284" style="edgeStyle=orthogonalEdgeStyle;rounded=0;orthogonalLoop=1;jettySize=auto;html=1;entryX=0.25;entryY=0;entryDx=0;entryDy=0;" edge="1" parent="1" source="aE1QB3RteZNUTEEl0exg-2274" target="aE1QB3RteZNUTEEl0exg-2268">
          <mxGeometry relative="1" as="geometry">
            <Array as="points">
              <mxPoint x="1730" y="522" />
              <mxPoint x="1730" y="450" />
              <mxPoint x="2295" y="450" />
            </Array>
          </mxGeometry>
        </mxCell>
        <mxCell id="aE1QB3RteZNUTEEl0exg-2274" value="" style="sketch=0;aspect=fixed;pointerEvents=1;shadow=0;dashed=0;html=1;strokeColor=none;labelPosition=center;verticalLabelPosition=bottom;verticalAlign=top;align=center;fillColor=#194B8D;shape=mxgraph.mscae.enterprise.document" vertex="1" parent="1">
          <mxGeometry x="1773" y="497" width="40" height="50" as="geometry" />
        </mxCell>
        <mxCell id="aE1QB3RteZNUTEEl0exg-2277" value="- Xác định số lượng địch cần xuất hiện và thời gian giữa mỗi lần xuất hiện.&lt;br style=&quot;font-size: 14px;&quot;&gt;- Tạo các đối tượng địch và gán các thuộc tính như tọa độ, hướng, tốc độ, mức độ máu, v.v.&lt;br style=&quot;font-size: 14px;&quot;&gt;-&amp;nbsp; Gửi thông điệp đến tất cả các client để thông báo về việc xuất hiện địch mới.&lt;br style=&quot;font-size: 14px;&quot;&gt;- Sau khi hoàn thành xong các bước tạo quái thì liên tục cập nhật thông tin của quái để đồng bộ với người chơi" style="rounded=1;whiteSpace=wrap;html=1;fontSize=14;fontStyle=0" vertex="1" parent="1">
          <mxGeometry x="1813" y="120" width="270" height="180" as="geometry" />
        </mxCell>
        <mxCell id="aE1QB3RteZNUTEEl0exg-2286" value="" style="edgeStyle=orthogonalEdgeStyle;rounded=0;orthogonalLoop=1;jettySize=auto;html=1;entryX=0;entryY=1;entryDx=0;entryDy=0;entryPerimeter=0;shape=flexArrow;" edge="1" parent="1" source="aE1QB3RteZNUTEEl0exg-2258" target="aE1QB3RteZNUTEEl0exg-2285">
          <mxGeometry relative="1" as="geometry">
            <mxPoint x="1835" y="688" as="sourcePoint" />
            <mxPoint x="1900" y="469" as="targetPoint" />
          </mxGeometry>
        </mxCell>
        <mxCell id="aE1QB3RteZNUTEEl0exg-2313" style="edgeStyle=orthogonalEdgeStyle;rounded=0;orthogonalLoop=1;jettySize=auto;html=1;exitX=1;exitY=0.5;exitDx=0;exitDy=0;exitPerimeter=0;fontFamily=Helvetica;fontSize=12;fontColor=default;" edge="1" parent="1" source="aE1QB3RteZNUTEEl0exg-2285" target="aE1QB3RteZNUTEEl0exg-2318">
          <mxGeometry relative="1" as="geometry">
            <mxPoint x="1912" y="786.9999999999998" as="targetPoint" />
            <Array as="points">
              <mxPoint x="1912" y="632" />
            </Array>
          </mxGeometry>
        </mxCell>
        <mxCell id="aE1QB3RteZNUTEEl0exg-2285" value="" style="sketch=0;aspect=fixed;pointerEvents=1;shadow=0;dashed=0;html=1;strokeColor=none;labelPosition=center;verticalLabelPosition=bottom;verticalAlign=top;align=center;fillColor=#194B8D;shape=mxgraph.mscae.enterprise.document" vertex="1" parent="1">
          <mxGeometry x="1860" y="607" width="40" height="50" as="geometry" />
        </mxCell>
        <mxCell id="aE1QB3RteZNUTEEl0exg-2289" value="" style="edgeStyle=orthogonalEdgeStyle;rounded=0;orthogonalLoop=1;jettySize=auto;html=1;entryX=0.5;entryY=1;entryDx=0;entryDy=0;entryPerimeter=0;shape=flexArrow;" edge="1" parent="1" source="aE1QB3RteZNUTEEl0exg-2264" target="aE1QB3RteZNUTEEl0exg-2288">
          <mxGeometry relative="1" as="geometry">
            <mxPoint x="2050" y="688" as="sourcePoint" />
            <mxPoint x="1941" y="469" as="targetPoint" />
          </mxGeometry>
        </mxCell>
        <mxCell id="aE1QB3RteZNUTEEl0exg-2312" style="edgeStyle=orthogonalEdgeStyle;rounded=0;orthogonalLoop=1;jettySize=auto;html=1;exitX=0;exitY=0.5;exitDx=0;exitDy=0;exitPerimeter=0;entryX=0.5;entryY=0;entryDx=0;entryDy=0;fontFamily=Helvetica;fontSize=12;fontColor=default;" edge="1" parent="1" source="aE1QB3RteZNUTEEl0exg-2288" target="aE1QB3RteZNUTEEl0exg-2318">
          <mxGeometry relative="1" as="geometry">
            <mxPoint x="1935" y="786.9999999999998" as="targetPoint" />
            <Array as="points">
              <mxPoint x="1935" y="622" />
              <mxPoint x="1935" y="787" />
            </Array>
          </mxGeometry>
        </mxCell>
        <mxCell id="aE1QB3RteZNUTEEl0exg-2288" value="" style="sketch=0;aspect=fixed;pointerEvents=1;shadow=0;dashed=0;html=1;strokeColor=none;labelPosition=center;verticalLabelPosition=bottom;verticalAlign=top;align=center;fillColor=#194B8D;shape=mxgraph.mscae.enterprise.document" vertex="1" parent="1">
          <mxGeometry x="1943" y="597" width="40" height="50" as="geometry" />
        </mxCell>
        <mxCell id="aE1QB3RteZNUTEEl0exg-2293" style="edgeStyle=orthogonalEdgeStyle;rounded=0;orthogonalLoop=1;jettySize=auto;html=1;entryX=0.5;entryY=1;entryDx=0;entryDy=0;shape=flexArrow;" edge="1" parent="1" source="aE1QB3RteZNUTEEl0exg-2290" target="aE1QB3RteZNUTEEl0exg-2277">
          <mxGeometry relative="1" as="geometry" />
        </mxCell>
        <mxCell id="aE1QB3RteZNUTEEl0exg-2290" value="" style="shape=mxgraph.cisco.servers.www_server;sketch=0;html=1;pointerEvents=1;dashed=0;fillColor=#036897;strokeColor=#ffffff;strokeWidth=2;verticalLabelPosition=bottom;verticalAlign=top;align=center;outlineConnect=0;" vertex="1" parent="1">
          <mxGeometry x="1927" y="350" width="66" height="67" as="geometry" />
        </mxCell>
        <mxCell id="aE1QB3RteZNUTEEl0exg-2302" value="Server" style="text;html=1;strokeColor=none;fillColor=none;align=center;verticalAlign=middle;whiteSpace=wrap;rounded=0;fontSize=16;fontStyle=1" vertex="1" parent="1">
          <mxGeometry x="1968" y="330" width="60" height="30" as="geometry" />
        </mxCell>
        <mxCell id="aE1QB3RteZNUTEEl0exg-2303" value="Client" style="text;html=1;strokeColor=none;fillColor=none;align=center;verticalAlign=middle;whiteSpace=wrap;rounded=0;fontSize=16;fontStyle=1" vertex="1" parent="1">
          <mxGeometry x="1700" y="667" width="60" height="30" as="geometry" />
        </mxCell>
        <mxCell id="aE1QB3RteZNUTEEl0exg-2304" value="Client" style="text;html=1;strokeColor=none;fillColor=none;align=center;verticalAlign=middle;whiteSpace=wrap;rounded=0;fontSize=16;fontStyle=1" vertex="1" parent="1">
          <mxGeometry x="2111.5" y="667" width="60" height="30" as="geometry" />
        </mxCell>
        <mxCell id="aE1QB3RteZNUTEEl0exg-2318" value="Enemy" style="swimlane;fontStyle=0;childLayout=stackLayout;horizontal=1;startSize=26;fillColor=none;horizontalStack=0;resizeParent=1;resizeParentMax=0;resizeLast=0;collapsible=1;marginBottom=0;html=1;" vertex="1" parent="1">
          <mxGeometry x="1866" y="787" width="140" height="194" as="geometry">
            <mxRectangle x="2290" y="150" width="110" height="30" as="alternateBounds" />
          </mxGeometry>
        </mxCell>
        <mxCell id="aE1QB3RteZNUTEEl0exg-2319" value="ID" style="text;strokeColor=none;fillColor=none;align=left;verticalAlign=top;spacingLeft=4;spacingRight=4;overflow=hidden;rotatable=0;points=[[0,0.5],[1,0.5]];portConstraint=eastwest;whiteSpace=wrap;html=1;" vertex="1" parent="aE1QB3RteZNUTEEl0exg-2318">
          <mxGeometry y="26" width="140" height="26" as="geometry" />
        </mxCell>
        <mxCell id="aE1QB3RteZNUTEEl0exg-2320" value="HP" style="text;strokeColor=none;fillColor=none;align=left;verticalAlign=top;spacingLeft=4;spacingRight=4;overflow=hidden;rotatable=0;points=[[0,0.5],[1,0.5]];portConstraint=eastwest;whiteSpace=wrap;html=1;" vertex="1" parent="aE1QB3RteZNUTEEl0exg-2318">
          <mxGeometry y="52" width="140" height="26" as="geometry" />
        </mxCell>
        <mxCell id="aE1QB3RteZNUTEEl0exg-2321" value="Position" style="text;strokeColor=none;fillColor=none;align=left;verticalAlign=top;spacingLeft=4;spacingRight=4;overflow=hidden;rotatable=0;points=[[0,0.5],[1,0.5]];portConstraint=eastwest;whiteSpace=wrap;html=1;" vertex="1" parent="aE1QB3RteZNUTEEl0exg-2318">
          <mxGeometry y="78" width="140" height="26" as="geometry" />
        </mxCell>
        <mxCell id="aE1QB3RteZNUTEEl0exg-2322" value="item: weapon" style="text;strokeColor=none;fillColor=none;align=left;verticalAlign=middle;spacingLeft=4;spacingRight=4;overflow=hidden;points=[[0,0.5],[1,0.5]];portConstraint=eastwest;rotatable=0;whiteSpace=wrap;html=1;" vertex="1" parent="aE1QB3RteZNUTEEl0exg-2318">
          <mxGeometry y="104" width="140" height="30" as="geometry" />
        </mxCell>
        <mxCell id="aE1QB3RteZNUTEEl0exg-2323" value="function: follow Player" style="text;strokeColor=none;fillColor=none;align=left;verticalAlign=middle;spacingLeft=4;spacingRight=4;overflow=hidden;points=[[0,0.5],[1,0.5]];portConstraint=eastwest;rotatable=0;whiteSpace=wrap;html=1;" vertex="1" parent="aE1QB3RteZNUTEEl0exg-2318">
          <mxGeometry y="134" width="140" height="30" as="geometry" />
        </mxCell>
        <mxCell id="aE1QB3RteZNUTEEl0exg-2324" value="function: Attack Player" style="text;strokeColor=none;fillColor=none;align=left;verticalAlign=middle;spacingLeft=4;spacingRight=4;overflow=hidden;points=[[0,0.5],[1,0.5]];portConstraint=eastwest;rotatable=0;whiteSpace=wrap;html=1;" vertex="1" parent="aE1QB3RteZNUTEEl0exg-2318">
          <mxGeometry y="164" width="140" height="30" as="geometry" />
        </mxCell>
        <mxCell id="aE1QB3RteZNUTEEl0exg-2325" value="giả định lượng người chơi hiện tại là 2. &lt;br style=&quot;font-size: 14px;&quot;&gt;góc nhìn của server đối với client và ngược lại&amp;nbsp;" style="whiteSpace=wrap;html=1;rounded=0;fontFamily=Helvetica;fontSize=14;fontColor=default;fillColor=none;gradientColor=none;labelBackgroundColor=#FFFFFF;" vertex="1" parent="1">
          <mxGeometry x="2120" y="120" width="187" height="70" as="geometry" />
        </mxCell>
        <mxCell id="aE1QB3RteZNUTEEl0exg-2326" value="LAN" style="text;html=1;align=center;verticalAlign=middle;resizable=0;points=[];autosize=1;strokeColor=none;fillColor=none;fontSize=17;fontFamily=Helvetica;fontColor=default;fontStyle=1" vertex="1" parent="1">
          <mxGeometry x="1700" y="140" width="60" height="30" as="geometry" />
        </mxCell>
      </root>
    </mxGraphModel>
  </diagram>
</mxfile>
